<?xml version="1.0" encoding="utf-8"?>
<!-- Generator: Adobe Illustrator 19.1.0, SVG Export Plug-In . SVG Version: 6.00 Build 0)  -->
<!DOCTYPE svg PUBLIC "-//W3C//DTD SVG 1.1//EN" "http://www.w3.org/Graphics/SVG/1.1/DTD/svg11.dtd">
<svg version="1.1" id="Layer_2" xmlns="http://www.w3.org/2000/svg" xmlns:xlink="http://www.w3.org/1999/xlink" x="0px" y="0px"
	 viewBox="0 0 199.6 91.1" style="enable-background:new 0 0 199.6 91.1;" xml:space="preserve">
<style type="text/css">
	.st0{fill:#F06324;}
	.st1{fill:#57C2B6;}
	.st2{fill:#F0AF25;}
	.st3{fill:#474747;}
	.st4{fill:#818181;}
</style>
<g>
	<path id="XMLID_114_" class="st0" d="M26.7,41.2c0,3.6-1.3,6.7-3.5,8.4l-4.1,3.2c-1,0.8-1.7,2.3-1.6,4.6l1,32.4H8.2l0.9-32.4
		c0.1-2.3-0.6-3.7-1.6-4.5l-4.1-3.3C1.2,47.9,0,44.9,0,41.2C0,25.1,1.3,15,1.8,5c0.2-2.5,0.7-3.7,1.8-3.7c1.2,0,1.6,1.2,1.8,3.7
		l1.3,20.3c0.2,1.2,0.9,2,1.6,2c0.7,0,1.4-0.8,1.6-2L11.6,5c0.1-2.6,0.7-3.7,1.7-3.7c1,0,1.5,1,1.7,3.7l1.6,20.3c0,1.2,0.7,2,1.5,2
		c0.9,0,1.6-0.8,1.6-2L21.2,5c0.1-2.5,0.7-3.7,1.8-3.7c1,0,1.6,1.2,1.7,3.7C25.4,15,26.7,25.1,26.7,41.2z"/>
	<path id="XMLID_113_" class="st1" d="M40.1,57.9V5.8c0-4.4,1.8-5.5,4.4-3.9c8.2,4.8,13.6,24.8,13.6,49.9c0,4-5.3,5.9-6.9,6.9
		c-1,0.7-1.6,2.1-1.6,3.8L50.8,90H39.2C39.4,84.5,40.1,62.5,40.1,57.9L40.1,57.9z"/>
	<path id="XMLID_112_" class="st2" d="M81.1,85.2c2,3.3,5.5,5.5,9.6,5.5c6.2,0,11.2-5,11.2-11.2c0-4.6-6.4-8.6-10.4-10.3
		c-1.3-0.6-2.2-46.6-0.9-47.2c4.1-1.7,11.2-5.7,11.2-10.4c0-6.2-5-11.2-11.2-11.2c-4.1,0-7.7,2.2-9.6,5.5c-2-3.3-5.5-5.5-9.6-5.5
		c-6.2,0-7.7,5-7.7,11.2c0,5.1,6.2,9.3,10.8,10.7c1,0.3,2,46.2,0.8,46.6c-4.3,1.6-11.6,5.7-11.6,10.5c0,6.2,1.5,11.2,7.7,11.2
		C75.6,90.7,79.2,88.5,81.1,85.2z"/>
	<g>
		<g>
			<path class="st3" d="M112.5,0.7c0-0.4,0.3-0.7,0.7-0.7h0.6c0.3,0,0.5,0.1,0.6,0.3l16.9,21c0,0,0,0,0.1,0V1.1
				c0-0.4,0.3-0.7,0.7-0.7h1.3c0.4,0,0.7,0.3,0.7,0.7v25.5c0,0.4-0.3,0.7-0.7,0.7h-0.3c-0.3,0-0.5-0.1-0.6-0.3L115.3,5.6h0v20.7
				c0,0.4-0.3,0.7-0.7,0.7h-1.3c-0.4,0-0.7-0.3-0.7-0.7V0.7z"/>
			<path class="st3" d="M153.4,0c7.6,0,13.7,6.1,13.7,13.7s-6.1,13.6-13.7,13.6s-13.6-6-13.6-13.6S145.8,0,153.4,0z M153.4,24.7
				c6,0,11-4.9,11-11s-5-11-11-11c-6,0-11,5-11,11S147.3,24.7,153.4,24.7z"/>
			<path class="st3" d="M175.7,0.5c0.1-0.3,0.4-0.5,0.7-0.5h0.6c0.3,0,0.6,0.2,0.6,0.4l7.5,20.9c0.1,0,0.1,0,0.2,0l7.4-20.9
				c0.1-0.2,0.4-0.4,0.6-0.4h0.6c0.3,0,0.6,0.2,0.7,0.5l4.9,25.5c0.1,0.5-0.1,0.9-0.7,0.9h-1.5c-0.3,0-0.6-0.3-0.7-0.5l-3.4-19.5
				c0,0-0.1,0-0.2,0l-7,20c-0.1,0.2-0.4,0.4-0.6,0.4h-0.7c-0.2,0-0.6-0.2-0.6-0.4l-7.1-20c0,0-0.1,0-0.2,0l-3.3,19.5
				c0,0.3-0.4,0.5-0.7,0.5h-1.5c-0.6,0-0.8-0.4-0.7-0.9L175.7,0.5z"/>
		</g>
		<g>
			<path class="st3" d="M112.5,32.6c0-0.4,0.3-0.7,0.7-0.7h0.6c0.3,0,0.5,0.1,0.6,0.3l16.9,21c0,0,0,0,0.1,0V33
				c0-0.4,0.3-0.7,0.7-0.7h1.3c0.4,0,0.7,0.3,0.7,0.7v25.5c0,0.4-0.3,0.7-0.7,0.7h-0.3c-0.3,0-0.5-0.1-0.6-0.3l-17.2-21.4h0v20.7
				c0,0.4-0.3,0.7-0.7,0.7h-1.3c-0.4,0-0.7-0.3-0.7-0.7V32.6z"/>
			<path class="st3" d="M153.4,31.9c7.6,0,13.7,6.1,13.7,13.7s-6.1,13.6-13.7,13.6s-13.6-6-13.6-13.6S145.8,31.9,153.4,31.9z
				 M153.4,56.6c6,0,11-4.9,11-11s-5-11-11-11c-6,0-11,5-11,11S147.3,56.6,153.4,56.6z"/>
			<path class="st3" d="M175.7,32.4c0.1-0.3,0.4-0.5,0.7-0.5h0.6c0.3,0,0.6,0.2,0.6,0.4l7.5,20.9c0.1,0,0.1,0,0.2,0l7.4-20.9
				c0.1-0.2,0.4-0.4,0.6-0.4h0.6c0.3,0,0.6,0.2,0.7,0.5l4.9,25.5c0.1,0.5-0.1,0.9-0.7,0.9h-1.5c-0.3,0-0.6-0.3-0.7-0.5l-3.4-19.5
				c0,0-0.1,0-0.2,0l-7,20c-0.1,0.2-0.4,0.4-0.6,0.4h-0.7c-0.2,0-0.6-0.2-0.6-0.4l-7.1-20c0,0-0.1,0-0.2,0l-3.3,19.5
				c0,0.3-0.4,0.5-0.7,0.5h-1.5c-0.6,0-0.8-0.4-0.7-0.9L175.7,32.4z"/>
		</g>
		<g>
			<path class="st4" d="M112.5,64.5c0-0.4,0.3-0.7,0.7-0.7h0.6c0.3,0,0.5,0.1,0.6,0.3l16.9,21c0,0,0,0,0.1,0V64.9
				c0-0.4,0.3-0.7,0.7-0.7h1.3c0.4,0,0.7,0.3,0.7,0.7v25.5c0,0.4-0.3,0.7-0.7,0.7h-0.3c-0.3,0-0.5-0.1-0.6-0.3l-17.2-21.4h0V90
				c0,0.4-0.3,0.7-0.7,0.7h-1.3c-0.4,0-0.7-0.3-0.7-0.7V64.5z"/>
			<path class="st4" d="M153.4,63.8c7.6,0,13.7,6.1,13.7,13.7c0,7.6-6.1,13.6-13.7,13.6c-7.6,0-13.6-6-13.6-13.6
				C139.7,69.9,145.8,63.8,153.4,63.8z M153.4,88.5c6,0,11-4.9,11-11c0-6-5-11-11-11c-6,0-11,5-11,11
				C142.4,83.6,147.3,88.5,153.4,88.5z"/>
			<path class="st4" d="M194.6,90.6c-0.1,0.3-0.4,0.5-0.7,0.5h-0.6c-0.3,0-0.6-0.2-0.6-0.4l-7.5-20.9c-0.1,0-0.1,0-0.2,0l-7.4,20.9
				c-0.1,0.2-0.4,0.4-0.6,0.4h-0.6c-0.3,0-0.6-0.2-0.7-0.5l-4.9-25.5c-0.1-0.5,0.1-0.9,0.7-0.9h1.5c0.3,0,0.6,0.3,0.7,0.5l3.4,19.5
				c0,0,0.1,0,0.2,0l7-20c0.1-0.2,0.4-0.4,0.6-0.4h0.7c0.2,0,0.6,0.2,0.6,0.4l7.1,20c0,0,0.1,0,0.2,0l3.3-19.5
				c0-0.3,0.4-0.5,0.7-0.5h1.5c0.6,0,0.8,0.4,0.7,0.9L194.6,90.6z"/>
		</g>
	</g>
</g>
</svg>
